<?xml version="1.0" encoding="utf-8"?>
<!-- Generator: Adobe Illustrator 22.0.0, SVG Export Plug-In . SVG Version: 6.00 Build 0)  -->
<svg version="1.1" xmlns="http://www.w3.org/2000/svg" xmlns:xlink="http://www.w3.org/1999/xlink" x="0px" y="0px"
	 viewBox="0 0 512 512" style="enable-background:new 0 0 512 512;" xml:space="preserve">
<style type="text/css">
	.st0{fill:#E1902B;}
	.st1{fill:#3D2A3D;}
	.st2{fill:#E7AD84;}
	.st3{fill:#2961A5;}
	.st4{fill:#FFD66C;}
	.st5{fill:#A18FA1;}
	.st6{fill:#DB4646;}
	.st7{fill:#78BEDE;}
	.st8{fill:#43B06D;}
	.st9{fill:#9EC853;}
	.st10{fill:#217D44;}
	.st11{fill:#DBDBDB;}
	.st12{fill:#FFFFFF;}
	.st13{fill:#C41E1E;}
	.st14{fill:#B9BDC2;}
	.st15{fill:#856685;}
	.st16{fill:#E8E8E8;}
	.st17{fill:#BDBDBD;}
	.st18{fill:#839797;}
	.st19{fill:#D9D9D9;}
	.st20{fill:#F0F0F0;}
	.st21{fill:#BFBFBF;}
	.st22{fill:#706470;}
	.st23{fill:#4B1E4C;}
	.st24{fill:#614F61;}
	.st25{fill:#A37352;}
	.st26{fill:#7A6C7A;}
	.st27{fill:#919191;}
	.st28{fill:#6E6E6E;}
	.st29{fill:#B8B8B8;}
	.st30{fill:#FF826E;}
	.st31{fill:#7D5737;}
	.st32{fill:#2E1B17;}
	.st33{fill:#483324;}
	.st34{fill:#9E9E9E;}
	.st35{fill:#7D6F7D;}
	.st36{fill:#6B4A6B;}
	.st37{fill:#4A80C2;}
	.st38{fill:#B34B0F;}
	.st39{fill:#FFC682;}
	.st40{clip-path:url(#SVGID_2_);fill:#DBDBDB;}
	.st41{fill:#FFDBC5;}
	.st42{fill:#E3E3E3;}
	.st43{clip-path:url(#SVGID_4_);}
	.st44{clip-path:url(#SVGID_6_);fill:#DBDBDB;}
	.st45{clip-path:url(#SVGID_8_);}
	.st46{fill:#E8B494;}
	.st47{fill:#F2D7C4;}
	.st48{fill:#5D5660;}
	.st49{fill:#3B2D3F;}
	.st50{fill:#756275;}
	.st51{fill:#E1622B;}
	.st52{fill:#F0E9E9;}
	.st53{fill:#4D917B;}
	.st54{fill:#C4C4C4;}
	.st55{fill:#14855A;}
	.st56{fill:#C21B1B;}
</style>
<g id="Layer_9">
	<path class="st1" d="M512,256c0,141.4-114.6,256-256,256C114.6,512,0,397.4,0,256C0,114.6,114.6,0,256,0C397.4,0,512,114.6,512,256
		z"/>
</g>
<g id="Layer_7">
	<g>
		<g>
			<g>
				<path class="st27" d="M131.9,224.9c1.2,14.4,11,18.3,21.8,8.7l53.7-47.9c10.8-9.6,8.6-21.8-4.8-27.2l-54.7-21.7
					c-13.4-5.3-23.4,2.1-22.1,16.5L131.9,224.9z"/>
				<path class="st28" d="M146.9,219.6c0.8,9.7,7.5,12.3,14.7,5.9l36.3-32.4c7.3-6.5,5.8-14.8-3.3-18.4L157.7,160
					c-9.1-3.6-15.8,1.4-15,11.1L146.9,219.6z"/>
			</g>
			<g>
				<path class="st27" d="M368,224.9c-1.2,14.4-11,18.3-21.8,8.7l-53.7-47.9c-10.8-9.6-8.6-21.8,4.8-27.2l54.7-21.7
					c13.4-5.3,23.4,2.1,22.1,16.5L368,224.9z"/>
				<path class="st28" d="M353,219.6c-0.8,9.7-7.5,12.3-14.7,5.9L302,193c-7.3-6.5-5.8-14.8,3.3-18.4l36.9-14.7
					c9.1-3.6,15.8,1.4,15,11.1L353,219.6z"/>
			</g>
		</g>
		<g>
			<path class="st29" d="M249.9,361c57.3,0,106.8-24.5,130.5-60c-23.7-35.5-73.2-60-130.5-60c-57.3,0-106.8,24.5-130.5,60
				C143.2,336.5,192.7,361,249.9,361z"/>
			<path class="st29" d="M355,342v-89c0-51.5-46.6-93.2-104-93.2S147,201.5,147,253v89H355z"/>
		</g>
		<g>
			<circle class="st1" cx="215.4" cy="255" r="11"/>
			<circle class="st1" cx="284.4" cy="255" r="11"/>
		</g>
		<g>
			<path class="st28" d="M258,211c0-17,0-34.1,0-51.1c-2-0.2-5.2-0.3-8-0.3s-6,0.1-8,0.3c0,17,0,34.1,0,51.1
				C242,222,258,222,258,211z"/>
			<path class="st28" d="M205.4,212.3c2.7,10.5,18.9,6,16.2-4.5c-3.9-15.3-2.1-31.6,4.7-45.8c-7,1.5-13.8,3.6-20.2,6.2
				C202.1,182.5,201.7,197.7,205.4,212.3z"/>
			<path class="st28" d="M278.2,207.8c-2.7,10.5,13.5,15,16.2,4.5c3.7-14.6,3.4-29.7-0.7-44c-6.4-2.7-13.2-4.8-20.2-6.2
				C280.4,176.2,282.2,192.5,278.2,207.8z"/>
		</g>
		<path class="st29" d="M249.9,378c54.2,0,101-17.5,123.5-43c-22.4-25.5-69.3-43-123.5-43c-54.2,0-101,17.5-123.5,43
			C148.9,360.5,195.8,378,249.9,378z"/>
		<g>
			<path class="st12" d="M298,320.5c0,14.1-11.4,25.5-25.5,25.5h-45c-14.1,0-25.5-11.4-25.5-25.5l0,0c0-14.1,11.4-25.5,25.5-25.5h45
				C286.6,295,298,306.4,298,320.5L298,320.5z"/>
			<ellipse class="st12" cx="249.9" cy="298" rx="33.5" ry="27"/>
			<g>
				<path class="st1" d="M268,319.7c-0.2,10.3-8.2,18.2-18.5,18.5c-10.3,0.2-18.2-8.6-18.5-18.5c-0.2-6.4-10.1-6.4-9.9,0
					c0.4,15.7,12.7,28,28.4,28.4c15.7,0.4,28-13.2,28.4-28.4C278.1,313.3,268.2,313.4,268,319.7L268,319.7z"/>
			</g>
			<g>
				<g>
					<path class="st30" d="M272.7,287.8c0,6.5-23.1,19.1-23.1,19.1s-23.1-12.5-23.1-19.1c0-6.5,10.4-8.1,23.1-8.1
						C262.3,279.7,272.7,281.3,272.7,287.8z"/>
					<path class="st27" d="M256,329.5c0,3-2.5,5.5-5.5,5.5l0,0c-3,0-5.5-2.5-5.5-5.5v-29c0-3,2.5-5.5,5.5-5.5l0,0
						c3,0,5.5,2.5,5.5,5.5V329.5z"/>
				</g>
			</g>
		</g>
	</g>
</g>
</svg>
